<svg xmlns="http://www.w3.org/2000/svg" viewBox="0 0 39.65 8.89"><defs><style>.cls-1{fill:#97ff00;}.cls-2{fill:#fff;}</style></defs><title>Ilguard_logo</title><g id="Layer_2" data-name="Layer 2"><g id="Layer_1-2" data-name="Layer 1"><path class="cls-1" d="M7.8.37H9.07v8.4H7.8Z"/><path class="cls-1" d="M10.47.37h1.27v7.2H14v1.2H10.47Z"/><path class="cls-2" d="M17.69,3V2.28a.77.77,0,1,0-1.53,0V6.86a.77.77,0,1,0,1.53,0V5.38h-.77V4.18h2V6.86a1.92,1.92,0,0,1-2,2,1.93,1.93,0,0,1-2-2V2.28a1.93,1.93,0,0,1,2-2,1.92,1.92,0,0,1,2,2V3Z"/><path class="cls-2" d="M20.15,6.92V.37h1.27V6.92a.71.71,0,1,0,1.42,0V.37h1.24V6.92a1.86,1.86,0,0,1-1.95,2A1.88,1.88,0,0,1,20.15,6.92Z"/><path class="cls-2" d="M27.89,6.91H26.52l-.27,1.86H25L26.37.37h1.7l1.39,8.4H28.17Zm-.17-1.22-.51-3.52-.52,3.52Z"/><path class="cls-2" d="M33.3,8.77,32.38,5.3h-.66V8.77H30.45V.37h2a1.88,1.88,0,0,1,2,2V3.3A1.91,1.91,0,0,1,33.55,5l1.07,3.75ZM31.72,4.1h.66a.71.71,0,0,0,.78-.78v-1a.72.72,0,0,0-.78-.78h-.66Z"/><path class="cls-2" d="M35.67.37h2a1.88,1.88,0,0,1,2,2V6.77a1.87,1.87,0,0,1-2,2h-2Zm1.93,7.2a.72.72,0,0,0,.78-.78V2.35a.72.72,0,0,0-.78-.78h-.66v6Z"/><path class="cls-1" d="M1,7.38A2.09,2.09,0,0,0,1,8.2a.14.14,0,0,1-.1.16h0a.15.15,0,0,1-.18-.09A3.81,3.81,0,0,1,1.14,5.1C2.19,3.18,3.83,3.6,4.52,1.74c0,0-.43.85-2.47,1.75A3.34,3.34,0,0,0,.24,6.05,3.28,3.28,0,0,1,.47,3.12C1.47,1.48,4,2.05,4.92,0c0,0,1.41,2.51.14,4.59C4.22,6,2.8,6.17,1.74,6.48A1.09,1.09,0,0,0,1,7.38Z"/></g></g></svg>